<svg width="24" height="24" viewBox="0 0 24 24" fill="none" xmlns="http://www.w3.org/2000/svg">
<path d="M19.4999 9.99992C19.4999 9.86731 19.4472 9.74013 19.3535 9.64636C19.2597 9.5526 19.1325 9.49992 18.9999 9.49992C18.8673 9.49992 18.7401 9.5526 18.6463 9.64636C18.5526 9.74013 18.4999 9.86731 18.4999 9.99992H19.4999ZM5.4999 9.99992C5.4999 9.86731 5.44722 9.74013 5.35345 9.64636C5.25968 9.5526 5.13251 9.49992 4.9999 9.49992C4.86729 9.49992 4.74011 9.5526 4.64635 9.64636C4.55258 9.74013 4.4999 9.86731 4.4999 9.99992H5.4999ZM20.6459 12.3539C20.7398 12.4478 20.8671 12.5005 20.9999 12.5005C21.1327 12.5005 21.26 12.4478 21.3539 12.3539C21.4478 12.26 21.5005 12.1327 21.5005 11.9999C21.5005 11.8671 21.4478 11.7398 21.3539 11.6459L20.6459 12.3539ZM11.9999 2.99992L12.3539 2.64592C12.3075 2.59935 12.2523 2.56241 12.1915 2.5372C12.1308 2.512 12.0657 2.49902 11.9999 2.49902C11.9341 2.49902 11.869 2.512 11.8083 2.5372C11.7475 2.56241 11.6923 2.59935 11.6459 2.64592L11.9999 2.99992ZM2.6459 11.6459C2.55201 11.7398 2.49927 11.8671 2.49927 11.9999C2.49927 12.1327 2.55201 12.26 2.6459 12.3539C2.73979 12.4478 2.86712 12.5005 2.9999 12.5005C3.13267 12.5005 3.26001 12.4478 3.3539 12.3539L2.6459 11.6459ZM6.9999 21.4999H16.9999V20.4999H6.9999V21.4999ZM19.4999 18.9999V9.99992H18.4999V18.9999H19.4999ZM5.4999 18.9999V9.99992H4.4999V18.9999H5.4999ZM21.3539 11.6459L12.3539 2.64592L11.6459 3.35392L20.6459 12.3539L21.3539 11.6459ZM11.6459 2.64592L2.6459 11.6459L3.3539 12.3539L12.3539 3.35392L11.6459 2.64592ZM16.9999 21.4999C17.6629 21.4999 18.2988 21.2365 18.7677 20.7677C19.2365 20.2988 19.4999 19.663 19.4999 18.9999H18.4999C18.4999 19.3977 18.3419 19.7793 18.0606 20.0606C17.7793 20.3419 17.3977 20.4999 16.9999 20.4999V21.4999ZM6.9999 20.4999C6.60207 20.4999 6.22054 20.3419 5.93924 20.0606C5.65793 19.7793 5.4999 19.3977 5.4999 18.9999H4.4999C4.4999 19.663 4.76329 20.2988 5.23213 20.7677C5.70097 21.2365 6.33686 21.4999 6.9999 21.4999V20.4999Z" fill="white"/>
</svg>
