<svg width="24" height="24" viewBox="0 0 24 24" fill="none" xmlns="http://www.w3.org/2000/svg">
<path d="M19.5001 9.99992C19.5001 9.86731 19.4475 9.74013 19.3537 9.64636C19.2599 9.5526 19.1328 9.49992 19.0001 9.49992C18.8675 9.49992 18.7404 9.5526 18.6466 9.64636C18.5528 9.74013 18.5001 9.86731 18.5001 9.99992H19.5001ZM5.50014 9.99992C5.50014 9.86731 5.44746 9.74013 5.3537 9.64636C5.25993 9.5526 5.13275 9.49992 5.00014 9.49992C4.86754 9.49992 4.74036 9.5526 4.64659 9.64636C4.55282 9.74013 4.50014 9.86731 4.50014 9.99992H5.50014ZM20.6461 12.3539C20.74 12.4478 20.8674 12.5005 21.0001 12.5005C21.1329 12.5005 21.2603 12.4478 21.3541 12.3539C21.448 12.26 21.5008 12.1327 21.5008 11.9999C21.5008 11.8671 21.448 11.7398 21.3541 11.6459L20.6461 12.3539ZM12.0001 2.99992L12.3541 2.64592C12.3077 2.59935 12.2525 2.56241 12.1918 2.5372C12.131 2.512 12.0659 2.49902 12.0001 2.49902C11.9344 2.49902 11.8693 2.512 11.8085 2.5372C11.7478 2.56241 11.6926 2.59935 11.6461 2.64592L12.0001 2.99992ZM2.64614 11.6459C2.55226 11.7398 2.49951 11.8671 2.49951 11.9999C2.49951 12.1327 2.55226 12.26 2.64614 12.3539C2.74003 12.4478 2.86737 12.5005 3.00014 12.5005C3.13292 12.5005 3.26026 12.4478 3.35414 12.3539L2.64614 11.6459ZM7.00014 21.4999H17.0001V20.4999H7.00014V21.4999ZM19.5001 18.9999V9.99992H18.5001V18.9999H19.5001ZM5.50014 18.9999V9.99992H4.50014V18.9999H5.50014ZM21.3541 11.6459L12.3541 2.64592L11.6461 3.35392L20.6461 12.3539L21.3541 11.6459ZM11.6461 2.64592L2.64614 11.6459L3.35414 12.3539L12.3541 3.35392L11.6461 2.64592ZM17.0001 21.4999C17.6632 21.4999 18.2991 21.2365 18.7679 20.7677C19.2368 20.2988 19.5001 19.663 19.5001 18.9999H18.5001C18.5001 19.3977 18.3421 19.7793 18.0608 20.0606C17.7795 20.3419 17.398 20.4999 17.0001 20.4999V21.4999ZM7.00014 20.4999C6.60232 20.4999 6.22079 20.3419 5.93948 20.0606C5.65818 19.7793 5.50014 19.3977 5.50014 18.9999H4.50014C4.50014 19.663 4.76354 20.2988 5.23238 20.7677C5.70122 21.2365 6.3371 21.4999 7.00014 21.4999V20.4999Z" fill="#FD7014"/>
</svg>
